<svg xmlns="http://www.w3.org/2000/svg" width="571" height="567" viewBox="0 0 571 567">
<g>
<path d="M 328.50 561.54 C318.83,563.09 272.93,564.36 262.00,563.38 C201.49,557.94 142.70,531.88 98.40,490.85 C72.26,466.64 55.45,444.72 38.71,413.00 C16.61,371.12 6.65,330.30 6.63,281.50 C6.62,251.28 10.70,223.87 19.22,197.00 C31.29,158.95 48.63,128.72 76.56,97.02 C121.10,46.48 177.32,16.06 246.00,5.33 C264.03,2.51 312.34,2.80 331.83,5.84 C378.58,13.12 419.78,30.22 456.71,57.67 C471.38,68.58 500.76,97.62 511.15,111.50 C549.08,162.15 566.96,212.96 568.73,275.12 C570.59,340.53 549.81,403.10 508.70,455.87 C499.18,468.10 475.86,491.97 465.00,500.61 C423.11,533.94 379.67,553.33 328.50,561.54 ZM 202.50 472.30 C203.60,472.58 234.88,472.78 272.00,472.73 C331.41,472.67 339.83,472.47 342.29,471.09 C345.69,469.18 346.56,466.22 345.06,461.67 C343.44,456.79 341.10,455.08 334.39,453.93 C302.64,448.47 297.03,446.25 291.12,436.78 C285.92,428.46 285.62,425.22 285.66,378.00 C285.69,339.80 285.91,333.77 287.43,328.50 C290.32,318.48 292.22,313.64 294.52,310.50 C295.72,308.85 297.50,305.92 298.48,304.00 C299.46,302.08 302.12,298.45 304.38,295.94 C308.44,291.43 313.84,284.29 323.36,270.81 C326.04,267.02 329.78,262.74 331.68,261.29 C333.58,259.85 336.01,256.94 337.09,254.83 C338.16,252.72 339.48,251.00 340.01,251.00 C340.54,251.00 342.18,249.09 343.64,246.75 C345.11,244.41 348.05,240.81 350.16,238.75 C353.55,235.44 354.25,235.14 356.01,236.24 C358.39,237.73 358.47,238.38 356.51,240.34 C355.20,241.66 355.52,242.12 359.30,244.33 C363.63,246.87 365.82,247.42 376.50,248.66 C383.15,249.44 385.82,249.42 397.50,248.57 C409.03,247.73 418.75,245.15 422.41,241.96 C424.11,240.48 427.31,238.35 429.52,237.23 C431.74,236.11 435.79,232.87 438.52,230.04 C441.26,227.21 445.56,222.76 448.08,220.16 C454.11,213.91 462.92,195.90 462.94,189.78 C462.95,187.43 463.32,180.77 463.77,175.00 C464.89,160.41 463.76,153.48 458.30,141.50 C450.36,124.12 449.74,123.14 443.75,118.48 C440.59,116.02 438.00,113.61 438.00,113.13 C438.00,112.39 431.48,107.49 428.50,106.00 C427.95,105.72 425.42,104.25 422.87,102.72 C418.49,100.10 414.89,98.85 402.00,95.50 C394.63,93.59 379.43,93.58 374.00,95.50 C371.66,96.32 368.44,97.00 366.83,97.00 C365.23,97.00 362.16,97.90 360.00,99.00 C357.84,100.10 354.95,101.00 353.57,101.00 C352.20,101.00 349.59,102.25 347.78,103.78 C345.98,105.31 342.49,107.89 340.04,109.53 C334.59,113.15 323.26,124.61 322.38,127.38 C322.03,128.48 320.41,131.56 318.78,134.20 C315.22,139.99 310.51,151.94 309.56,157.61 C308.89,161.58 309.00,161.80 312.65,163.95 C316.05,165.96 316.24,166.29 314.59,167.21 C313.36,167.90 287.13,168.21 236.62,168.15 C157.30,168.05 152.31,168.29 149.54,172.25 C147.64,174.96 149.67,186.00 152.07,186.00 C152.52,186.00 154.60,188.59 156.69,191.75 C158.77,194.91 161.23,198.18 162.15,199.00 C163.08,199.82 165.80,203.43 168.21,207.00 C170.63,210.57 173.81,214.80 175.30,216.40 C176.78,217.99 178.00,219.81 178.00,220.44 C178.00,221.08 179.84,223.37 182.10,225.55 C184.35,227.72 188.72,232.88 191.82,237.00 C194.91,241.12 197.71,244.73 198.04,245.00 C198.37,245.27 200.46,247.98 202.67,251.01 C204.89,254.04 209.02,259.05 211.85,262.15 C214.68,265.25 217.00,268.27 217.00,268.87 C217.00,269.47 219.76,273.01 223.14,276.73 C226.52,280.45 230.43,285.30 231.83,287.50 C233.23,289.70 235.89,293.12 237.74,295.10 C241.11,298.69 247.68,308.83 250.33,314.50 C251.10,316.15 252.93,321.12 254.40,325.54 L 257.07 333.59 L 256.79 381.06 L 256.50 428.54 L 252.96 434.52 C250.85,438.07 248.22,441.07 246.49,441.91 C244.88,442.68 242.87,444.13 242.03,445.12 C239.93,447.59 232.77,450.06 225.00,451.00 C218.57,451.78 211.06,453.23 203.70,455.13 C199.47,456.22 196.01,460.69 196.00,465.08 C196.00,467.85 199.27,471.49 202.50,472.30 ZM 201.39 212.02 C201.74,214.21 201.62,216.00 201.12,216.00 C200.29,216.00 191.39,205.34 184.70,196.33 C183.02,194.06 182.03,191.59 182.20,190.12 L 182.50 187.67 L 271.30 187.72 C320.15,187.75 360.36,188.03 360.67,188.34 C361.80,189.47 360.01,193.63 356.93,197.03 C355.20,198.94 351.36,203.76 348.39,207.75 C342.62,215.50 340.70,216.74 341.62,212.14 C341.97,210.42 341.56,208.04 340.60,206.19 L 339.00 203.10 L 271.54 203.03 L 204.08 202.95 L 202.41 205.49 C201.21,207.33 200.93,209.14 201.39,212.02 ZM 362.47 232.37 C361.39,233.12 359.49,234.05 358.25,234.43 C355.42,235.32 355.19,232.73 357.76,228.90 C358.71,227.48 361.20,223.76 363.28,220.65 C365.36,217.54 367.24,215.00 367.45,215.00 C367.66,215.00 368.55,214.73 369.42,214.39 C370.46,213.99 371.00,214.34 371.00,215.39 C371.00,216.28 371.46,217.00 372.03,217.00 C372.61,217.00 372.38,218.29 371.50,220.00 C370.08,222.74 370.10,223.22 371.66,225.60 C373.18,227.92 373.80,228.13 377.43,227.55 C379.89,227.17 382.43,225.91 383.86,224.38 C385.93,222.16 386.18,221.10 385.80,215.91 C385.33,209.48 383.95,206.99 381.79,208.73 C380.98,209.39 379.63,209.44 378.14,208.88 C376.20,208.14 375.90,207.51 376.43,205.24 C376.78,203.73 378.34,201.38 379.89,200.00 C381.45,198.62 383.24,196.50 383.88,195.27 C384.52,194.05 385.84,192.62 386.81,192.10 C386.91,192.05 387.00,192.00 387.09,191.95 C387.50,191.72 387.81,191.54 388.06,191.61 C388.93,191.86 388.94,195.19 389.25,210.24 C389.43,218.89 390.01,226.37 390.54,226.86 C391.07,227.34 394.27,228.01 397.65,228.35 C402.42,228.81 404.07,228.61 405.03,227.46 C405.71,226.64 409.07,224.64 412.50,223.00 C419.94,219.45 421.02,218.30 421.71,213.14 C422.15,209.81 421.92,209.11 420.20,208.56 C419.07,208.21 416.52,206.02 414.52,203.71 C404.93,192.60 402.42,190.00 401.26,190.00 C400.56,190.00 400.00,189.58 400.00,189.07 C400.00,187.16 395.97,186.91 393.04,188.63 C391.40,189.60 389.82,190.15 389.52,189.85 C389.22,189.55 390.09,186.86 391.46,183.86 C393.53,179.34 393.79,177.83 393.00,174.96 C391.42,169.25 389.34,168.56 372.00,168.00 C359.51,167.60 357.47,167.34 361.50,166.70 C368.80,165.53 369.54,164.91 369.27,160.13 C369.00,155.36 369.70,155.07 373.33,158.43 C375.61,160.55 376.65,160.80 381.23,160.37 C390.81,159.48 393.16,159.45 393.64,160.23 C394.60,161.78 397.88,160.95 398.50,159.00 C398.85,157.90 400.00,157.00 401.07,157.00 C403.58,157.00 403.53,158.51 400.97,160.31 C398.48,162.05 398.60,167.32 401.18,169.66 C402.13,170.53 405.00,171.47 407.54,171.76 C412.60,172.33 411.80,173.96 406.45,173.98 C403.00,174.00 401.00,175.55 401.00,178.20 C401.00,179.19 400.52,180.00 399.93,180.00 C399.34,180.00 399.00,180.64 399.18,181.43 C399.66,183.55 412.83,196.86 416.14,198.57 C417.71,199.39 419.00,200.67 419.00,201.42 C419.00,203.51 426.40,206.98 429.61,206.39 C433.26,205.73 433.01,205.95 437.41,199.56 C440.09,195.67 441.34,192.73 441.50,189.91 C441.62,187.67 442.45,185.13 443.33,184.25 C444.79,182.78 444.99,182.80 445.63,184.49 C446.05,185.58 445.66,187.52 444.67,189.25 C443.75,190.85 443.00,192.91 442.99,193.83 C442.98,194.75 441.84,197.95 440.45,200.94 C438.22,205.72 435.79,208.68 426.26,218.25 C419.10,225.42 414.88,227.85 405.00,230.45 C401.42,231.39 396.92,232.62 395.00,233.18 C388.03,235.22 384.54,235.20 378.98,233.08 C372.70,230.70 365.35,230.38 362.47,232.37 ZM 349.00 168.06 C346.52,168.11 343.83,168.23 343.00,168.33 C339.88,168.69 321.00,167.91 321.00,167.42 C321.00,167.13 322.13,165.91 323.52,164.70 C324.90,163.49 327.13,159.47 328.46,155.76 C329.80,152.05 331.95,147.55 333.25,145.76 C334.54,143.97 336.25,141.18 337.05,139.57 C339.73,134.14 351.43,123.71 359.45,119.61 C366.50,115.99 369.08,115.44 367.59,117.86 C367.25,118.40 364.74,119.59 362.00,120.50 C356.33,122.38 350.32,128.48 352.07,130.58 C352.62,131.25 353.00,132.17 352.92,132.64 C352.46,135.19 353.26,136.80 355.50,137.82 C356.88,138.44 358.00,139.58 358.00,140.34 C358.00,141.11 358.95,142.94 360.11,144.42 C363.78,149.08 361.19,148.55 356.75,143.73 C352.29,138.89 348.73,137.00 344.08,137.00 C341.83,137.00 340.72,137.94 338.25,141.91 C335.17,146.85 332.00,156.00 332.00,159.92 C332.00,163.32 337.48,165.99 344.50,166.01 C351.79,166.03 355.93,167.92 349.00,168.06 ZM 446.86 178.25 C446.35,179.21 445.61,179.97 445.21,179.93 C443.23,179.74 440.10,177.56 439.08,175.65 C438.02,173.66 437.28,173.52 429.12,173.82 C424.27,173.99 418.77,173.69 416.90,173.16 L 413.50 172.18 L 416.50 172.05 C418.15,171.98 423.77,171.81 428.98,171.67 L 438.46 171.42 L 441.20 167.46 C444.06,163.32 444.69,160.54 443.00,159.50 C442.45,159.16 442.00,157.28 442.00,155.32 C442.00,152.26 442.21,151.93 443.50,153.00 C444.33,153.68 445.00,155.34 445.00,156.69 C445.00,158.03 445.52,160.11 446.16,161.31 C447.62,164.03 448.11,175.91 446.86,178.25 ZM 431.29 132.07 C434.32,134.88 436.08,137.30 435.86,138.35 C435.54,139.84 435.25,139.88 433.50,138.67 C432.40,137.91 429.77,136.88 427.66,136.39 C424.24,135.60 423.58,134.91 421.52,130.05 C419.42,125.07 418.79,124.45 414.36,122.92 C409.70,121.33 400.64,116.02 401.35,115.31 C401.54,115.12 404.80,115.93 408.60,117.10 C416.18,119.43 423.98,123.53 425.43,125.95 C425.94,126.80 428.58,129.56 431.29,132.07 ZM 283.68 287.39 C279.59,289.73 269.21,291.46 266.00,290.34 C261.01,288.60 256.17,285.90 255.66,284.56 C254.92,282.64 255.36,282.62 258.84,284.42 C260.35,285.20 264.32,286.40 267.66,287.09 C272.99,288.19 274.18,288.14 277.27,286.67 C279.21,285.75 281.50,285.00 282.35,285.00 C283.20,285.00 285.21,283.59 286.82,281.87 C288.43,280.15 290.28,278.93 290.94,279.15 C292.80,279.77 288.51,284.62 283.68,287.39 ZM 251.40 277.25 C252.88,279.86 253.95,281.99 253.79,281.99 C252.35,281.93 246.67,276.11 244.58,272.55 C243.15,270.10 240.82,266.84 239.41,265.30 C231.87,257.07 228.89,252.71 230.04,251.61 C230.91,250.79 231.50,250.99 232.35,252.40 C232.98,253.45 235.41,256.50 237.75,259.19 C240.09,261.87 242.00,264.47 242.00,264.97 C242.00,265.47 243.51,267.36 245.36,269.19 C247.20,271.01 249.92,274.64 251.40,277.25 ZM 389.45 118.05 C388.31,119.12 386.95,119.97 386.44,119.94 C384.49,119.80 381.38,118.16 380.06,116.57 C378.01,114.10 380.22,112.49 385.28,112.77 C387.60,112.91 391.49,113.12 393.91,113.26 C399.38,113.56 400.40,115.50 395.28,115.84 C393.22,115.98 390.59,116.97 389.45,118.05 ZM 304.82 264.72 C303.78,265.98 301.00,266.52 301.00,265.46 C301.00,264.21 304.43,259.84 306.13,258.93 C307.81,258.03 307.88,258.19 306.93,260.69 C306.35,262.20 305.41,264.01 304.82,264.72 ZM 211.00 226.07 C211.00,228.50 210.49,228.49 208.00,226.00 C205.93,223.93 205.30,221.00 206.93,221.00 C208.54,221.00 211.00,224.06 211.00,226.07 ZM 438.96 142.61 C440.37,143.96 441.04,145.62 440.83,147.26 C440.56,149.37 440.29,149.57 439.23,148.42 C438.53,147.66 437.69,145.57 437.35,143.77 L 436.75 140.50 ZM 314.00 250.44 C314.00,251.88 309.09,258.15 309.03,256.78 C309.01,256.39 309.76,254.48 310.69,252.53 C312.42,248.89 314.00,247.90 314.00,250.44 ZM 296.96 274.55 C296.30,275.35 295.36,276.00 294.88,276.00 C293.39,276.00 293.91,273.23 295.75,271.39 C297.40,269.74 297.52,269.74 297.83,271.37 C298.02,272.32 297.62,273.75 296.96,274.55 ZM 217.84 234.98 C218.42,236.64 218.77,238.00 218.62,238.00 C217.93,238.00 214.23,233.31 213.67,231.73 C213.15,230.25 213.36,230.12 214.92,230.96 C215.95,231.51 217.26,233.32 217.84,234.98 ZM 323.00 238.92 C323.00,239.45 321.89,241.15 320.53,242.69 C318.21,245.33 318.06,245.37 318.03,243.37 C318.01,242.17 319.10,240.51 320.50,239.59 C321.88,238.69 323.00,238.39 323.00,238.92 ZM 327.96 233.81 C326.84,235.02 325.76,236.00 325.55,236.00 C324.57,236.00 326.43,231.92 328.10,230.41 C330.82,227.95 330.70,230.87 327.96,233.81 ZM 375.00 115.50 C374.32,116.32 372.57,116.99 371.13,116.97 C368.60,116.94 368.57,116.88 370.44,115.47 C371.51,114.66 373.25,114.00 374.31,114.00 C375.92,114.00 376.03,114.25 375.00,115.50 ZM 408.93 152.59 C407.42,154.41 406.00,154.40 406.00,152.56 C406.00,150.77 407.65,149.67 409.05,150.53 C409.77,150.97 409.73,151.62 408.93,152.59 ZM 337.72 220.39 C338.09,220.75 337.40,222.04 336.19,223.25 C334.43,225.01 334.00,225.13 334.00,223.84 C334.00,221.97 336.75,219.41 337.72,220.39 ZM 227.00 247.15 C227.00,248.72 225.08,248.02 224.04,246.07 C222.44,243.09 222.80,242.51 225.00,244.50 C226.10,245.50 227.00,246.69 227.00,247.15 ZM 368.00 153.00 C369.22,155.27 369.15,155.32 366.75,153.92 C364.87,152.83 364.38,151.00 365.96,151.00 C366.50,151.00 367.41,151.90 368.00,153.00 ZM 388.00 127.38 C388.00,128.21 387.55,129.16 387.00,129.50 C386.45,129.84 386.00,129.44 386.00,128.62 C386.00,127.79 386.45,126.84 387.00,126.50 C387.55,126.16 388.00,126.56 388.00,127.38 Z" fill="rgb(25,33,42)"/>
<path d="M 202.50 472.30 C199.27,471.49 196.00,467.85 196.00,465.08 C196.01,460.69 199.47,456.22 203.70,455.13 C211.06,453.23 218.57,451.78 225.00,451.00 C232.77,450.06 239.93,447.59 242.03,445.12 C242.87,444.13 244.88,442.68 246.49,441.91 C248.22,441.07 250.85,438.07 252.96,434.52 L 256.50 428.54 L 256.79 381.06 L 257.07 333.59 L 254.40 325.54 C252.93,321.12 251.10,316.15 250.33,314.50 C247.68,308.83 241.11,298.69 237.74,295.10 C235.89,293.12 233.23,289.70 231.83,287.50 C230.43,285.30 226.52,280.45 223.14,276.73 C219.76,273.01 217.00,269.47 217.00,268.87 C217.00,268.27 214.68,265.25 211.85,262.15 C209.02,259.05 204.89,254.04 202.67,251.01 C200.46,247.98 198.37,245.27 198.04,245.00 C197.71,244.73 194.91,241.12 191.82,237.00 C188.72,232.88 184.35,227.72 182.10,225.55 C179.84,223.37 178.00,221.08 178.00,220.44 C178.00,219.81 176.78,217.99 175.30,216.40 C173.81,214.80 170.63,210.57 168.21,207.00 C165.80,203.43 163.08,199.82 162.15,199.00 C161.23,198.18 158.77,194.91 156.69,191.75 C154.60,188.59 152.52,186.00 152.07,186.00 C149.67,186.00 147.64,174.96 149.54,172.25 C152.31,168.29 157.30,168.05 236.62,168.15 C287.13,168.21 313.36,167.90 314.59,167.21 C316.24,166.29 316.05,165.96 312.65,163.95 C309.00,161.80 308.89,161.58 309.56,157.61 C310.51,151.94 315.22,139.99 318.78,134.20 C320.41,131.56 322.03,128.48 322.38,127.38 C323.26,124.61 334.59,113.15 340.04,109.53 C342.49,107.89 345.98,105.31 347.78,103.78 C349.59,102.25 352.20,101.00 353.57,101.00 C354.95,101.00 357.84,100.10 360.00,99.00 C362.16,97.90 365.23,97.00 366.83,97.00 C368.44,97.00 371.66,96.32 374.00,95.50 C379.43,93.58 394.63,93.59 402.00,95.50 C414.89,98.85 418.49,100.10 422.87,102.72 C425.42,104.25 427.95,105.72 428.50,106.00 C431.48,107.49 438.00,112.39 438.00,113.13 C438.00,113.61 440.59,116.02 443.75,118.48 C449.74,123.14 450.36,124.12 458.30,141.50 C463.76,153.48 464.89,160.41 463.77,175.00 C463.32,180.77 462.95,187.43 462.94,189.78 C462.92,195.90 454.11,213.91 448.08,220.16 C445.56,222.76 441.26,227.21 438.52,230.04 C435.79,232.87 431.74,236.11 429.52,237.23 C427.31,238.35 424.11,240.48 422.41,241.96 C418.75,245.15 409.03,247.73 397.50,248.57 C385.82,249.42 383.15,249.44 376.50,248.66 C365.82,247.42 363.63,246.87 359.30,244.33 C355.52,242.12 355.20,241.66 356.51,240.34 C356.95,239.91 357.29,239.53 357.52,239.20 C357.19,239.89 357.00,240.43 357.00,240.70 C357.00,241.79 362.22,243.69 374.00,246.87 C378.84,248.18 393.42,248.22 400.57,246.94 C429.35,241.79 452.51,220.20 460.06,191.50 C465.16,172.09 461.81,150.54 450.85,132.38 C443.94,120.92 428.18,107.80 415.13,102.65 C402.64,97.71 382.41,96.54 368.83,99.96 C347.98,105.22 329.94,119.73 320.25,139.03 C316.55,146.41 312.54,160.94 313.85,162.25 C314.33,162.73 316.87,162.98 319.49,162.81 L 324.26 162.50 L 325.96 156.00 C331.48,134.96 349.39,116.97 370.37,111.39 C379.01,109.09 392.60,108.61 400.61,110.32 C414.68,113.32 429.46,122.52 437.60,133.34 C446.41,145.07 449.94,154.68 450.68,169.00 C451.68,188.48 446.23,202.84 432.64,216.49 C418.99,230.20 405.88,236.00 388.54,236.00 C382.36,236.00 376.31,235.39 372.97,234.43 L 372.87 234.40 C366.23,232.50 363.82,231.81 362.22,232.65 C361.30,233.13 360.64,234.10 359.60,235.63 C358.93,236.62 358.32,237.64 357.86,238.52 C358.06,237.75 357.46,237.15 356.01,236.24 C354.25,235.14 353.55,235.44 350.16,238.75 C348.05,240.81 345.11,244.41 343.64,246.75 C342.18,249.09 340.54,251.00 340.01,251.00 C339.48,251.00 338.16,252.72 337.09,254.83 C336.01,256.94 333.58,259.85 331.68,261.29 C329.78,262.74 326.04,267.02 323.36,270.81 C313.84,284.29 308.44,291.43 304.38,295.94 C302.12,298.45 299.46,302.08 298.48,304.00 C297.50,305.92 295.72,308.85 294.52,310.50 C292.22,313.64 290.32,318.48 287.43,328.50 C285.91,333.77 285.69,339.80 285.66,378.00 C285.62,425.22 285.92,428.46 291.12,436.78 C297.03,446.25 302.64,448.47 334.39,453.93 C341.10,455.08 343.44,456.79 345.06,461.67 C346.56,466.22 345.69,469.18 342.29,471.09 C339.83,472.47 331.41,472.67 272.00,472.73 C234.88,472.78 203.60,472.58 202.50,472.30 ZM 200.02 465.75 L 200.00 469.00 L 343.00 469.00 L 342.97 465.75 C342.91,460.02 341.33,459.08 328.35,457.03 C321.83,456.00 314.48,454.83 312.00,454.42 C309.52,454.02 305.69,452.92 303.48,451.98 C297.34,449.37 288.50,440.72 285.29,434.19 L 282.50 428.50 L 282.21 382.08 C281.98,344.26 282.20,334.34 283.39,328.55 C286.57,313.20 289.79,307.94 316.50,274.46 C324.20,264.81 331.29,255.37 332.25,253.48 C333.21,251.59 335.13,249.30 336.53,248.39 C337.92,247.48 338.88,246.54 338.65,246.31 C338.42,246.08 339.33,244.68 340.67,243.20 C344.29,239.19 352.03,229.47 366.53,210.72 C373.66,201.50 382.07,190.70 385.21,186.72 C391.27,179.06 392.01,176.77 389.35,173.83 C387.76,172.08 382.79,172.00 271.50,172.00 C157.38,172.00 155.28,172.03 153.54,173.96 C151.29,176.45 152.05,179.83 155.86,184.23 C158.39,187.16 169.45,201.29 175.98,209.92 C177.34,211.72 181.48,216.87 185.19,221.35 C196.54,235.08 207.19,248.50 213.86,257.48 C217.36,262.19 227.36,275.07 236.08,286.10 C245.60,298.15 253.15,308.74 254.99,312.64 C260.94,325.24 261.10,327.09 260.79,381.81 C260.76,385.54 260.75,389.00 260.73,392.23 C260.57,425.02 260.54,432.51 257.03,437.61 C255.65,439.62 253.74,441.26 251.06,443.94 C243.84,451.16 238.14,453.47 221.00,456.12 C207.47,458.22 201.92,459.66 200.77,461.39 C200.36,462.00 200.02,463.96 200.02,465.75 ZM 284.60 292.22 C281.85,293.64 278.03,294.46 273.00,294.73 C266.29,295.08 264.87,294.82 259.50,292.19 C252.85,288.94 251.59,287.70 240.99,274.00 C236.95,268.77 233.16,264.18 232.57,263.79 C231.98,263.39 231.50,262.69 231.50,262.23 C231.50,261.77 223.40,251.09 213.50,238.50 C203.60,225.91 194.60,214.39 193.50,212.91 C192.40,211.42 187.68,205.38 183.00,199.48 C178.32,193.59 173.67,187.70 172.67,186.38 L 170.83 184.00 L 372.05 184.00 L 370.59 186.75 C369.79,188.26 366.52,192.73 363.32,196.68 C360.12,200.63 355.02,207.11 352.00,211.08 C348.98,215.05 344.81,220.37 342.75,222.90 C340.69,225.43 337.90,228.85 336.56,230.50 C335.22,232.15 332.41,235.81 330.31,238.64 C328.21,241.46 324.25,246.46 321.50,249.74 C318.75,253.01 312.45,261.03 307.50,267.54 C295.67,283.10 289.59,289.65 284.60,292.22 ZM 264.48 282.61 C269.07,284.61 276.95,284.33 280.72,282.03 C284.31,279.84 291.23,271.49 316.00,239.46 C318.48,236.25 324.92,227.98 330.33,221.07 L 340.15 208.50 L 306.15 208.24 C287.45,208.09 256.58,208.09 237.55,208.24 L 202.96 208.50 L 215.74 224.50 C222.77,233.30 233.69,247.22 240.01,255.43 C254.07,273.71 260.54,280.89 264.48,282.61 ZM 362.47 232.37 C365.35,230.38 372.70,230.70 378.98,233.08 C384.54,235.20 388.03,235.22 395.00,233.18 C396.92,232.62 401.42,231.39 405.00,230.45 C414.88,227.85 419.10,225.42 426.26,218.25 C435.79,208.68 438.22,205.72 440.45,200.94 C441.84,197.95 442.98,194.75 442.99,193.83 C443.00,192.91 443.75,190.85 444.67,189.25 C445.66,187.52 446.05,185.58 445.63,184.49 C444.99,182.80 444.79,182.78 443.33,184.25 C442.45,185.13 441.62,187.67 441.50,189.91 C441.34,192.73 440.09,195.67 437.41,199.56 C433.01,205.95 433.26,205.73 429.61,206.39 C426.40,206.98 419.00,203.51 419.00,201.42 C419.00,200.67 417.71,199.39 416.14,198.57 C412.83,196.86 399.66,183.55 399.18,181.43 C399.00,180.64 399.34,180.00 399.93,180.00 C400.52,180.00 401.00,179.19 401.00,178.20 C401.00,175.55 403.00,174.00 406.45,173.98 C411.80,173.96 412.60,172.33 407.54,171.76 C405.00,171.47 402.13,170.53 401.18,169.66 C400.70,169.23 400.31,168.70 400.00,168.11 C404.73,168.76 439.43,167.87 440.38,166.98 C442.80,164.69 434.09,142.35 429.69,139.58 C428.28,138.69 425.66,140.86 413.56,152.94 C406.66,159.83 400.97,165.84 399.73,167.51 C398.70,164.96 399.09,161.62 400.97,160.31 C403.53,158.51 403.58,157.00 401.07,157.00 C400.00,157.00 398.85,157.90 398.50,159.00 C397.88,160.95 394.60,161.78 393.64,160.23 C393.16,159.45 390.81,159.48 381.23,160.37 C376.65,160.80 375.61,160.55 373.33,158.43 C369.70,155.07 369.00,155.36 369.27,160.13 C369.54,164.91 368.80,165.53 361.50,166.70 C357.47,167.34 359.51,167.60 372.00,168.00 C389.34,168.56 391.42,169.25 393.00,174.96 C393.79,177.83 393.53,179.34 391.46,183.86 C390.09,186.86 389.22,189.55 389.52,189.85 C389.82,190.15 391.40,189.60 393.04,188.63 C395.97,186.91 400.00,187.16 400.00,189.07 C400.00,189.58 400.56,190.00 401.26,190.00 C402.42,190.00 404.93,192.60 414.52,203.71 C416.52,206.02 419.07,208.21 420.20,208.56 C421.92,209.11 422.15,209.81 421.71,213.14 L 421.69 213.25 L 409.82 201.35 C403.04,194.56 396.73,189.01 395.79,189.00 C394.84,189.00 393.60,189.87 393.04,190.93 C391.97,192.93 391.54,225.20 392.56,226.23 C393.52,227.19 405.23,224.08 410.78,221.39 C413.68,219.98 417.42,217.67 419.10,216.26 L 421.55 214.20 C420.83,218.48 419.40,219.71 412.50,223.00 C409.07,224.64 405.71,226.64 405.03,227.46 C404.07,228.61 402.42,228.81 397.65,228.35 C394.27,228.01 391.07,227.34 390.54,226.86 C390.01,226.37 389.43,218.89 389.25,210.24 C388.94,195.19 388.93,191.86 388.06,191.61 C387.81,191.54 387.50,191.72 387.09,191.95 C387.00,192.00 386.91,192.05 386.81,192.10 C385.84,192.62 384.52,194.05 383.88,195.27 C383.24,196.50 381.45,198.62 379.89,200.00 C378.34,201.38 376.78,203.73 376.43,205.24 C375.90,207.51 376.20,208.14 378.14,208.88 C379.63,209.44 380.98,209.39 381.79,208.73 C383.95,206.99 385.33,209.48 385.80,215.91 C386.18,221.10 385.93,222.16 383.86,224.38 C383.51,224.76 383.09,225.12 382.61,225.45 C383.34,222.11 382.99,210.11 381.94,209.46 C380.67,208.68 374.44,215.46 371.54,219.92 C372.39,218.25 372.60,217.00 372.03,217.00 C371.46,217.00 371.00,216.28 371.00,215.39 C371.00,214.34 370.46,213.99 369.42,214.39 C368.55,214.73 367.66,215.00 367.45,215.00 C367.24,215.00 365.36,217.54 363.28,220.65 C361.20,223.76 358.71,227.48 357.76,228.90 C355.19,232.73 355.42,235.32 358.25,234.43 C359.49,234.05 361.39,233.12 362.47,232.37 ZM 201.39 212.02 C200.93,209.14 201.21,207.33 202.41,205.49 L 204.08 202.95 L 271.54 203.03 L 339.00 203.10 L 340.60 206.19 C341.56,208.04 341.97,210.42 341.62,212.14 C340.70,216.74 342.62,215.50 348.39,207.75 C351.36,203.76 355.20,198.94 356.93,197.03 C360.01,193.63 361.80,189.47 360.67,188.34 C360.36,188.03 320.15,187.75 271.30,187.72 L 182.50 187.67 L 182.20 190.12 C182.03,191.59 183.02,194.06 184.70,196.33 C191.39,205.34 200.29,216.00 201.12,216.00 C201.62,216.00 201.74,214.21 201.39,212.02 ZM 366.63 145.57 C374.26,152.91 380.79,158.94 381.13,158.96 C382.53,159.05 382.97,153.71 382.99,136.75 C382.99,135.28 382.99,133.93 383.00,132.68 C383.03,123.90 383.05,120.35 381.46,119.35 C380.38,118.68 378.57,119.17 375.54,119.99 C374.90,120.16 374.21,120.35 373.46,120.54 C367.75,122.02 354.83,128.84 353.43,131.12 C353.04,131.74 358.73,137.96 366.63,145.57 ZM 392.00 139.00 C392.00,154.45 392.29,159.00 393.26,159.00 C393.96,159.00 400.55,152.97 407.91,145.59 C417.17,136.31 421.10,131.71 420.69,130.63 C419.93,128.66 407.10,122.13 400.50,120.36 C399.85,120.19 399.26,120.02 398.70,119.87 C396.20,119.16 394.62,118.71 393.63,119.29 C391.96,120.25 391.97,124.13 391.99,134.58 C392.00,135.94 392.00,137.41 392.00,139.00 ZM 414.24 192.74 C421.52,200.03 427.73,206.00 428.05,206.00 C429.28,206.00 433.88,200.30 435.89,196.28 C437.92,192.24 441.00,181.99 441.00,179.29 C441.00,178.28 436.66,178.00 421.00,178.00 C410.00,178.00 401.00,178.33 401.00,178.74 C401.00,179.14 406.96,185.44 414.24,192.74 ZM 335.58 162.12 C336.29,163.28 367.72,163.26 368.44,162.10 C369.22,160.83 346.94,138.81 345.45,139.38 C342.40,140.55 334.08,159.70 335.58,162.12 ZM 349.00 168.06 C355.93,167.92 351.79,166.03 344.50,166.01 C337.48,165.99 332.00,163.32 332.00,159.92 C332.00,156.00 335.17,146.85 338.25,141.91 C340.72,137.94 341.83,137.00 344.08,137.00 C348.73,137.00 352.29,138.89 356.75,143.73 C361.19,148.55 363.78,149.08 360.11,144.42 C358.95,142.94 358.00,141.11 358.00,140.34 C358.00,139.58 356.88,138.44 355.50,137.82 C353.26,136.80 352.46,135.19 352.92,132.64 C353.00,132.17 352.62,131.25 352.07,130.58 C350.32,128.48 356.33,122.38 362.00,120.50 C364.74,119.59 367.25,118.40 367.59,117.86 C369.08,115.44 366.50,115.99 359.45,119.61 C351.43,123.71 339.73,134.14 337.05,139.57 C336.25,141.18 334.54,143.97 333.25,145.76 C331.95,147.55 329.80,152.05 328.46,155.76 C327.13,159.47 324.90,163.49 323.52,164.70 C322.13,165.91 321.00,167.13 321.00,167.42 C321.00,167.91 339.88,168.69 343.00,168.33 C343.83,168.23 346.52,168.11 349.00,168.06 ZM 446.86 178.25 C448.11,175.91 447.62,164.03 446.16,161.31 C445.52,160.11 445.00,158.03 445.00,156.69 C445.00,155.34 444.33,153.68 443.50,153.00 C442.21,151.93 442.00,152.26 442.00,155.32 C442.00,157.28 442.45,159.16 443.00,159.50 C444.69,160.54 444.06,163.32 441.20,167.46 L 438.46 171.42 L 428.98 171.67 C423.77,171.81 418.15,171.98 416.50,172.05 L 413.50 172.18 L 416.90 173.16 C418.77,173.69 424.27,173.99 429.12,173.82 C437.28,173.52 438.02,173.66 439.08,175.65 C440.10,177.56 443.23,179.74 445.21,179.93 C445.61,179.97 446.35,179.21 446.86,178.25 ZM 431.29 132.07 C428.58,129.56 425.94,126.80 425.43,125.95 C423.98,123.53 416.18,119.43 408.60,117.10 C404.80,115.93 401.54,115.12 401.35,115.31 C400.64,116.02 409.70,121.33 414.36,122.92 C418.79,124.45 419.42,125.07 421.52,130.05 C423.58,134.91 424.24,135.60 427.66,136.39 C429.77,136.88 432.40,137.91 433.50,138.67 C435.25,139.88 435.54,139.84 435.86,138.35 C436.08,137.30 434.32,134.88 431.29,132.07 ZM 283.68 287.39 C288.51,284.62 292.80,279.77 290.94,279.15 C290.28,278.93 288.43,280.15 286.82,281.87 C285.21,283.59 283.20,285.00 282.35,285.00 C281.50,285.00 279.21,285.75 277.27,286.67 C274.18,288.14 272.99,288.19 267.66,287.09 C264.32,286.40 260.35,285.20 258.84,284.42 C255.36,282.62 254.92,282.64 255.66,284.56 C256.17,285.90 261.01,288.60 266.00,290.34 C269.21,291.46 279.59,289.73 283.68,287.39 ZM 251.40 277.25 C249.92,274.64 247.20,271.01 245.36,269.19 C243.51,267.36 242.00,265.47 242.00,264.97 C242.00,264.47 240.09,261.87 237.75,259.19 C235.41,256.50 232.98,253.45 232.35,252.40 C231.50,250.99 230.91,250.79 230.04,251.61 C228.89,252.71 231.87,257.07 239.41,265.30 C240.82,266.84 243.15,270.10 244.58,272.55 C246.67,276.11 252.35,281.93 253.79,281.99 C253.95,281.99 252.88,279.86 251.40,277.25 ZM 389.45 118.05 C390.59,116.97 393.22,115.98 395.28,115.84 C400.40,115.50 399.38,113.56 393.91,113.26 C391.49,113.12 387.60,112.91 385.28,112.77 C380.22,112.49 378.01,114.10 380.06,116.57 C381.38,118.16 384.49,119.80 386.44,119.94 C386.95,119.97 388.31,119.12 389.45,118.05 ZM 304.82 264.72 C305.41,264.01 306.35,262.20 306.93,260.69 C307.88,258.19 307.81,258.03 306.13,258.93 C304.43,259.84 301.00,264.21 301.00,265.46 C301.00,266.52 303.78,265.98 304.82,264.72 ZM 211.00 226.07 C211.00,224.06 208.54,221.00 206.93,221.00 C205.30,221.00 205.93,223.93 208.00,226.00 C210.49,228.49 211.00,228.50 211.00,226.07 ZM 376.00 225.27 C378.06,225.81 380.02,226.19 381.20,226.31 C380.03,226.91 378.72,227.35 377.43,227.55 C373.80,228.13 373.18,227.92 371.66,225.60 C371.14,224.81 370.79,224.23 370.61,223.71 C371.50,224.03 373.63,224.65 376.00,225.27 ZM 438.96 142.61 L 436.75 140.50 L 437.35 143.77 C437.69,145.57 438.53,147.66 439.23,148.42 C440.29,149.57 440.56,149.37 440.83,147.26 C441.04,145.62 440.37,143.96 438.96,142.61 ZM 314.00 250.44 C314.00,247.90 312.42,248.89 310.69,252.53 C309.76,254.48 309.01,256.39 309.03,256.78 C309.09,258.15 314.00,251.88 314.00,250.44 ZM 296.96 274.55 C297.62,273.75 298.02,272.32 297.83,271.37 C297.52,269.74 297.40,269.74 295.75,271.39 C293.91,273.23 293.39,276.00 294.88,276.00 C295.36,276.00 296.30,275.35 296.96,274.55 ZM 217.84 234.98 C217.26,233.32 215.95,231.51 214.92,230.96 C213.36,230.12 213.15,230.25 213.67,231.73 C214.23,233.31 217.93,238.00 218.62,238.00 C218.77,238.00 218.42,236.64 217.84,234.98 ZM 323.00 238.92 C323.00,238.39 321.88,238.69 320.50,239.59 C319.10,240.51 318.01,242.17 318.03,243.37 C318.06,245.37 318.21,245.33 320.53,242.69 C321.89,241.15 323.00,239.45 323.00,238.92 ZM 327.96 233.81 C330.70,230.87 330.82,227.95 328.10,230.41 C326.43,231.92 324.57,236.00 325.55,236.00 C325.76,236.00 326.84,235.02 327.96,233.81 ZM 375.00 115.50 C376.03,114.25 375.92,114.00 374.31,114.00 C373.25,114.00 371.51,114.66 370.44,115.47 C368.57,116.88 368.60,116.94 371.13,116.97 C372.57,116.99 374.32,116.32 375.00,115.50 ZM 408.93 152.59 C409.73,151.62 409.77,150.97 409.05,150.53 C407.65,149.67 406.00,150.77 406.00,152.56 C406.00,154.40 407.42,154.41 408.93,152.59 ZM 337.72 220.39 C336.75,219.41 334.00,221.97 334.00,223.84 C334.00,225.13 334.43,225.01 336.19,223.25 C337.40,222.04 338.09,220.75 337.72,220.39 ZM 227.00 247.15 C227.00,246.69 226.10,245.50 225.00,244.50 C222.80,242.51 222.44,243.09 224.04,246.07 C225.08,248.02 227.00,248.72 227.00,247.15 ZM 368.00 153.00 C367.41,151.90 366.50,151.00 365.96,151.00 C364.38,151.00 364.87,152.83 366.75,153.92 C369.15,155.32 369.22,155.27 368.00,153.00 ZM 388.00 127.38 C388.00,126.56 387.55,126.16 387.00,126.50 C386.45,126.84 386.00,127.79 386.00,128.62 C386.00,129.44 386.45,129.84 387.00,129.50 C387.55,129.16 388.00,128.21 388.00,127.38 Z" fill="rgb(37,36,22)"/>
<path d="M 440.28 214.95 C440.65,216.37 441.62,216.85 443.98,216.78 C446.53,216.71 447.69,215.92 449.72,212.85 C451.12,210.73 452.62,209.00 453.06,209.00 C442.25,228.76 423.14,242.90 400.57,246.94 C393.42,248.22 378.84,248.18 374.00,246.87 C362.22,243.69 357.00,241.79 357.00,240.70 C357.00,240.43 357.19,239.89 357.52,239.20 C357.69,238.96 357.80,238.73 357.86,238.52 C358.32,237.64 358.93,236.62 359.60,235.63 C360.64,234.10 361.30,233.13 362.22,232.65 C363.82,231.81 366.23,232.50 372.87,234.40 L 372.97 234.43 C376.31,235.39 382.36,236.00 388.54,236.00 C405.88,236.00 418.99,230.20 432.64,216.49 C436.82,212.29 440.23,208.02 442.92,203.56 C437.80,213.52 437.42,214.48 438.89,213.57 C439.37,213.27 440.00,213.89 440.28,214.95 ZM 402.71 220.90 C405.45,222.49 410.14,222.19 411.50,220.33 C412.82,218.53 412.37,215.00 410.82,215.00 C410.31,215.00 410.16,214.55 410.50,214.00 C410.84,213.45 412.67,213.00 414.56,213.00 C417.13,213.00 418.00,212.57 418.00,211.30 C418.00,210.09 412.13,203.64 406.39,197.98 C407.51,199.06 408.66,200.19 409.82,201.35 L 421.69 213.25 C421.65,213.58 421.60,213.90 421.55,214.20 L 419.10 216.26 C417.42,217.67 413.68,219.98 410.78,221.39 C405.23,224.08 393.52,227.19 392.56,226.23 C392.03,225.69 391.89,216.61 392.03,207.79 C392.12,216.68 392.61,218.34 394.62,218.71 C395.24,218.82 396.91,219.13 398.33,219.38 C399.75,219.64 401.72,220.32 402.71,220.90 ZM 376.00 225.27 C373.63,224.65 371.50,224.03 370.61,223.71 C370.25,222.65 370.55,221.83 371.50,220.00 C371.51,219.97 371.53,219.94 371.54,219.92 C374.44,215.46 380.67,208.68 381.94,209.46 C382.99,210.11 383.34,222.11 382.61,225.45 C382.18,225.77 381.70,226.05 381.20,226.31 C380.02,226.19 378.06,225.81 376.00,225.27 ZM 449.95 184.35 C450.73,179.57 450.96,174.49 450.68,169.00 C450.43,164.21 449.87,159.94 448.90,155.95 C449.86,159.85 450.44,163.99 450.70,168.57 C451.04,174.45 450.84,179.47 449.95,184.35 ZM 461.80 163.73 C460.37,152.86 456.64,141.98 450.85,132.38 C456.74,142.14 460.43,152.88 461.80,163.73 ZM 456.82 201.18 C458.09,197.79 459.40,193.87 460.29,190.59 C460.22,190.89 460.14,191.20 460.06,191.50 C459.19,194.83 458.10,198.06 456.82,201.18 ZM 393.66 190.09 C393.26,190.66 392.95,191.50 392.70,192.65 C392.81,191.76 392.92,191.16 393.04,190.93 C393.20,190.63 393.41,190.34 393.66,190.09 Z" fill="rgb(114,147,79)"/>
<path d="M 440.28 214.95 C440.00,213.89 439.37,213.27 438.89,213.57 C437.42,214.48 437.80,213.52 442.92,203.56 C446.51,197.61 448.81,191.30 449.95,184.35 C450.84,179.47 451.04,174.45 450.70,168.57 C450.44,163.99 449.86,159.85 448.90,155.95 C448.75,155.33 448.59,154.72 448.43,154.11 C448.65,154.67 448.88,155.22 449.10,155.74 L 450.92 159.98 L 454.46 157.89 C456.41,156.74 458.03,156.18 458.06,156.65 C458.10,157.12 458.53,156.50 459.02,155.28 C459.46,154.20 459.35,152.41 458.82,150.19 C460.20,154.64 461.20,159.19 461.80,163.73 C462.93,172.77 462.46,181.88 460.29,190.59 C459.40,193.87 458.09,197.79 456.82,201.18 C455.72,203.87 454.47,206.48 453.09,209.00 C452.62,209.00 451.12,210.73 449.72,212.85 C447.69,215.92 446.53,216.71 443.98,216.78 C441.62,216.85 440.65,216.37 440.28,214.95 ZM 414.24 192.74 C406.96,185.44 401.00,179.14 401.00,178.74 C401.00,178.33 410.00,178.00 421.00,178.00 C436.66,178.00 441.00,178.28 441.00,179.29 C441.00,181.99 437.92,192.24 435.89,196.28 C433.88,200.30 429.28,206.00 428.05,206.00 C427.73,206.00 421.52,200.03 414.24,192.74 ZM 402.71 220.90 C401.72,220.32 399.75,219.64 398.33,219.38 C396.91,219.13 395.24,218.82 394.62,218.71 C392.61,218.34 392.12,216.68 392.03,207.79 C392.13,201.61 392.37,195.56 392.70,192.65 C392.95,191.50 393.26,190.66 393.66,190.09 C394.29,189.45 395.11,189.00 395.79,189.00 C396.57,189.01 401.03,192.82 406.39,197.98 C412.13,203.64 418.00,210.09 418.00,211.30 C418.00,212.57 417.13,213.00 414.56,213.00 C412.67,213.00 410.84,213.45 410.50,214.00 C410.16,214.55 410.31,215.00 410.82,215.00 C412.37,215.00 412.82,218.53 411.50,220.33 C410.14,222.19 405.45,222.49 402.71,220.90 ZM 406.82 160.25 L 400.79 167.00 L 408.65 166.98 C414.09,166.97 416.04,166.67 415.00,166.00 C414.00,165.35 413.92,165.03 414.75,165.02 C415.44,165.01 416.00,164.38 416.00,163.61 C416.00,161.83 421.95,159.00 425.71,159.00 C427.31,159.00 429.49,159.66 430.56,160.47 C431.63,161.28 434.22,161.95 436.33,161.97 C439.77,162.00 440.11,161.97 439.68,159.55 C440.76,163.26 441.18,166.22 440.38,166.98 C439.43,167.87 404.73,168.76 400.00,168.11 C399.90,167.92 399.81,167.72 399.73,167.51 C400.97,165.84 406.66,159.83 413.56,152.94 C414.23,152.27 414.88,151.63 415.49,151.01 C412.29,154.32 408.97,157.85 406.82,160.25 ZM 314.00 161.70 C314.00,162.09 314.30,162.41 314.85,162.63 C314.36,162.53 314.00,162.40 313.85,162.25 C313.22,161.62 313.82,157.93 315.03,153.44 C314.95,155.02 315.47,155.76 316.75,155.29 C317.71,154.94 318.86,154.05 319.30,153.32 C319.90,152.33 320.61,152.26 322.05,153.03 C323.84,153.99 324.41,153.65 324.13,151.79 C324.07,151.39 324.59,151.29 325.29,151.56 C326.06,151.85 327.74,149.63 329.65,145.77 C330.35,144.36 331.09,142.98 331.88,141.63 C329.29,146.16 327.28,150.99 325.96,156.00 L 324.26 162.50 L 319.72 162.80 C320.61,162.57 321.00,162.14 321.00,161.47 C321.00,160.34 320.08,160.00 317.50,160.17 C315.42,160.31 314.00,160.94 314.00,161.70 ZM 434.46 129.59 C430.72,125.55 426.09,121.83 421.03,118.71 C423.47,120.14 425.76,121.66 427.76,123.20 C429.95,124.89 432.25,127.11 434.46,129.59 ZM 343.05 112.16 C350.71,106.54 359.42,102.36 368.68,100.00 C359.99,102.22 350.87,106.62 343.05,112.16 ZM 454.35 138.85 C451.82,133.86 448.56,128.72 445.17,124.75 C444.92,124.46 444.67,124.17 444.42,123.88 C446.98,126.72 449.18,129.60 450.85,132.38 C452.12,134.48 453.29,136.64 454.35,138.85 ZM 430.20 139.96 C432.05,141.61 434.49,146.07 436.56,150.92 C434.41,146.33 431.67,141.47 430.20,139.96 ZM 325.22 130.59 C322.89,134.19 320.75,138.07 319.04,141.68 C319.44,140.73 319.85,139.84 320.25,139.03 C321.72,136.10 323.39,133.28 325.22,130.59 ZM 444.73 144.60 C443.06,141.27 440.98,137.96 438.44,134.47 C440.95,137.83 443.16,141.36 444.73,144.60 ZM 417.28 103.55 C416.57,103.24 415.85,102.94 415.13,102.66 C412.18,101.48 408.79,100.52 405.15,99.79 C408.79,100.52 412.18,101.48 415.13,102.65 C415.84,102.93 416.56,103.23 417.28,103.55 Z" fill="rgb(145,175,87)"/>
<path d="M 200.02 465.75 C200.02,463.96 200.36,462.00 200.77,461.39 C201.23,460.70 202.41,460.04 204.54,459.38 C201.54,460.69 200.78,463.24 202.67,465.94 C204.10,467.99 204.55,468.00 271.03,468.00 L 337.95 468.00 L 339.66 465.40 C341.40,462.74 340.88,460.52 338.16,459.01 C342.25,460.31 342.93,462.01 342.97,465.75 L 343.00 469.00 L 200.00 469.00 ZM 211.06 457.82 C213.75,457.29 217.03,456.74 221.00,456.12 C217.49,456.67 213.93,457.28 211.06,457.82 ZM 303.87 452.14 C303.73,452.09 303.59,452.03 303.48,451.98 C300.69,450.79 297.35,448.37 294.24,445.46 C297.35,448.37 300.69,450.79 303.48,451.98 C303.60,452.03 303.74,452.09 303.87,452.14 Z" fill="rgb(144,109,68)"/>
<path d="M 303.87 452.14 C306.13,453.04 309.67,454.04 312.00,454.42 C314.48,454.83 321.83,456.00 328.35,457.03 C332.86,457.74 335.99,458.32 338.16,459.01 C340.88,460.52 341.40,462.74 339.66,465.40 L 337.95 468.00 L 271.03 468.00 C204.55,468.00 204.10,467.99 202.67,465.94 C200.78,463.24 201.54,460.69 204.54,459.38 C206.14,458.88 208.29,458.37 211.07,457.82 C213.93,457.28 217.49,456.66 221.00,456.12 C238.14,453.47 243.84,451.16 251.06,443.94 C253.74,441.26 255.65,439.62 257.03,437.61 C260.54,432.51 260.57,425.02 260.73,392.23 C260.75,389.00 260.76,385.54 260.79,381.81 C261.00,345.28 261.00,332.31 259.20,323.98 C260.57,329.07 261.33,334.67 262.01,341.89 C262.50,347.18 263.37,356.43 263.93,362.46 C265.31,377.12 265.23,413.45 263.81,423.84 C262.37,434.36 257.79,442.54 249.88,448.68 C243.99,453.26 233.32,457.56 225.50,458.51 C213.39,459.98 205.90,461.35 205.38,462.19 C205.07,462.69 205.07,463.75 205.38,464.55 C205.86,465.80 215.09,466.00 271.41,466.00 C315.81,466.00 337.09,465.66 337.53,464.96 C339.25,462.17 335.89,461.09 317.00,458.38 C309.20,457.26 300.13,453.80 293.75,449.50 C287.70,445.43 286.57,444.11 282.77,436.73 L 278.54 428.50 L 278.19 401.00 C277.87,376.17 278.72,351.77 279.75,356.25 C279.97,357.21 280.56,358.00 281.07,358.00 C281.59,358.00 282.00,352.92 282.00,346.57 C282.00,341.94 282.23,337.68 282.70,333.68 C282.12,340.61 282.03,353.22 282.21,382.08 L 282.50 428.50 L 285.29 434.19 C287.05,437.76 290.48,441.96 294.24,445.46 L 294.29 445.51 C297.39,448.39 300.70,450.80 303.48,451.98 C303.59,452.03 303.73,452.09 303.87,452.14 ZM 264.48 282.61 C260.54,280.89 254.07,273.71 240.01,255.43 C236.53,250.90 231.64,244.63 226.77,238.44 C237.46,251.66 245.20,260.63 245.68,260.25 C246.82,259.36 248.30,260.58 251.11,264.75 C254.74,270.12 263.73,279.45 266.00,280.20 C266.83,280.47 269.92,280.55 272.88,280.39 C277.83,280.11 278.63,279.71 282.88,275.31 C285.42,272.69 288.40,269.11 289.50,267.36 C292.23,263.01 300.11,254.00 301.17,254.00 C303.09,254.00 311.28,245.09 323.63,229.64 C320.38,233.81 317.48,237.54 316.00,239.46 C291.23,271.49 284.31,279.84 280.72,282.03 C276.95,284.33 269.07,284.61 264.48,282.61 ZM 285.30 320.85 C285.80,319.17 286.36,317.53 286.98,315.92 C288.00,313.27 289.94,309.83 293.28,304.94 C289.05,311.28 286.85,315.83 285.30,320.85 ZM 248.66 302.78 C245.32,298.07 240.96,292.27 236.08,286.10 C241.31,292.72 245.42,298.08 248.66,302.78 ZM 306.15 208.24 L 339.27 208.49 L 305.51 208.24 C296.10,208.17 283.80,208.13 271.52,208.13 C284.10,208.13 296.69,208.16 306.15,208.24 ZM 206.07 212.39 L 202.96 208.50 L 202.99 208.50 Z" fill="rgb(183,124,64)"/>
<path d="M 343.05 112.16 C350.87,106.62 359.99,102.22 368.68,100.00 C368.73,99.99 368.78,99.98 368.83,99.96 C378.90,97.43 392.62,97.41 404.14,99.59 C404.27,99.61 404.40,99.64 404.54,99.67 C404.74,99.71 404.95,99.75 405.15,99.79 C408.79,100.52 412.18,101.48 415.13,102.66 C415.85,102.94 416.57,103.24 417.28,103.55 C426.63,107.76 437.02,115.65 444.42,123.88 L 444.42 123.88 C444.67,124.17 444.92,124.46 445.17,124.75 C448.56,128.72 451.82,133.86 454.35,138.85 C456.12,142.52 457.62,146.32 458.82,150.19 C459.35,152.41 459.46,154.20 459.02,155.28 C458.53,156.50 458.10,157.12 458.06,156.65 C458.03,156.18 456.41,156.74 454.46,157.89 L 450.92 159.98 L 449.10 155.74 C448.88,155.22 448.65,154.67 448.43,154.11 C447.51,150.83 446.30,147.71 444.73,144.60 L 444.73 144.60 C443.16,141.36 440.95,137.83 438.44,134.47 C438.16,134.10 437.88,133.72 437.60,133.34 C436.64,132.07 435.59,130.82 434.46,129.59 C432.25,127.11 429.95,124.89 427.76,123.20 C425.76,121.66 423.47,120.14 421.03,118.71 C414.64,114.77 407.54,111.80 400.61,110.32 C392.60,108.61 379.01,109.09 370.37,111.39 L 370.36 111.39 C369.74,111.56 369.11,111.74 368.49,111.93 C364.24,113.22 360.13,115.02 356.24,117.24 C346.20,122.99 337.62,131.57 331.88,141.63 L 331.88 141.63 C331.09,142.98 330.35,144.36 329.65,145.77 C327.74,149.63 326.06,151.85 325.29,151.56 C324.59,151.29 324.07,151.39 324.13,151.79 C324.41,153.65 323.84,153.99 322.05,153.03 C320.61,152.26 319.90,152.33 319.30,153.32 C318.86,154.05 317.71,154.94 316.75,155.29 C315.47,155.76 314.95,155.02 315.03,153.44 C316.06,149.62 317.52,145.24 319.04,141.68 C320.75,138.07 322.89,134.19 325.22,130.59 C330.07,123.47 336.14,117.23 343.05,112.16 ZM 366.63 145.57 C358.73,137.96 353.04,131.74 353.43,131.12 C354.83,128.84 367.75,122.02 373.46,120.54 C374.21,120.35 374.90,120.16 375.54,119.99 C378.57,119.17 380.38,118.68 381.46,119.35 C383.05,120.35 383.03,123.90 383.00,132.68 C382.99,133.93 382.99,135.28 382.99,136.75 C382.97,153.71 382.53,159.05 381.13,158.96 C380.79,158.94 374.26,152.91 366.63,145.57 ZM 392.00 139.00 C392.00,137.41 392.00,135.94 391.99,134.58 C391.97,124.13 391.96,120.25 393.63,119.29 C394.62,118.71 396.20,119.16 398.70,119.87 C399.26,120.02 399.85,120.19 400.50,120.36 C407.10,122.13 419.93,128.66 420.69,130.63 C421.10,131.71 417.17,136.31 407.91,145.59 C400.55,152.97 393.96,159.00 393.26,159.00 C392.29,159.00 392.00,154.45 392.00,139.00 ZM 406.82 160.25 C408.97,157.85 412.29,154.32 415.49,151.01 C425.95,140.63 428.36,138.74 429.69,139.58 C429.86,139.68 430.03,139.81 430.20,139.96 C431.67,141.47 434.41,146.33 436.56,150.92 C437.80,153.83 438.91,156.88 439.68,159.55 C440.11,161.97 439.77,162.00 436.33,161.97 C434.22,161.95 431.63,161.28 430.56,160.47 C429.49,159.66 427.31,159.00 425.71,159.00 C421.95,159.00 416.00,161.83 416.00,163.61 C416.00,164.38 415.44,165.01 414.75,165.02 C413.92,165.03 414.00,165.35 415.00,166.00 C416.04,166.67 414.09,166.97 408.65,166.98 L 400.79 167.00 ZM 335.58 162.12 C334.08,159.70 342.40,140.55 345.45,139.38 C346.94,138.81 369.22,160.83 368.44,162.10 C367.72,163.26 336.29,163.28 335.58,162.12 ZM 314.00 161.70 C314.00,160.94 315.42,160.31 317.50,160.17 C320.08,160.00 321.00,160.34 321.00,161.47 C321.00,162.14 320.61,162.57 319.72,162.80 L 319.49 162.81 C317.69,162.93 315.94,162.85 314.85,162.63 C314.30,162.41 314.00,162.09 314.00,161.70 Z" fill="rgb(179,200,98)"/>
<path d="M 264.61 368.82 C265.02,371.48 265.39,371.92 266.47,371.02 C267.40,370.25 268.02,370.23 268.47,370.95 C269.51,372.63 270.64,372.20 273.92,368.92 C275.72,367.12 277.04,366.40 277.10,367.17 C277.25,369.22 278.19,365.83 278.70,362.16 C278.24,370.46 277.99,385.65 278.19,401.00 L 278.54 428.50 L 282.77 436.73 C286.57,444.11 287.70,445.43 293.75,449.50 C300.13,453.80 309.20,457.26 317.00,458.38 C335.89,461.09 339.25,462.17 337.53,464.96 C337.09,465.66 315.81,466.00 271.41,466.00 C215.09,466.00 205.86,465.80 205.38,464.55 C205.07,463.75 205.07,462.69 205.38,462.19 C205.90,461.35 213.39,459.98 225.50,458.51 C233.32,457.56 243.99,453.26 249.88,448.68 C257.79,442.54 262.37,434.36 263.81,423.84 C265.16,414.01 265.29,380.94 264.14,365.00 C264.32,366.62 264.49,368.01 264.61,368.82 ZM 248.45 261.07 C249.03,261.64 249.76,261.64 250.32,261.08 C250.83,260.57 251.79,260.36 252.45,260.62 C254.68,261.47 259.03,259.06 260.03,256.41 C260.94,254.04 261.39,253.85 264.77,254.41 C266.82,254.75 273.88,255.31 280.45,255.65 C291.46,256.21 296.18,257.49 294.29,259.38 C293.95,259.72 294.11,260.00 294.65,260.00 C294.85,260.00 295.19,259.80 295.60,259.46 C293.26,262.17 290.80,265.29 289.50,267.36 C288.40,269.11 285.42,272.69 282.88,275.31 C278.63,279.71 277.83,280.11 272.88,280.39 C269.92,280.55 266.83,280.47 266.00,280.20 C263.73,279.45 254.74,270.12 251.11,264.75 C249.56,262.46 248.42,261.06 247.52,260.41 C247.89,260.61 248.22,260.85 248.45,261.07 ZM 246.62 259.99 C246.28,259.93 245.97,260.02 245.68,260.25 C245.30,260.55 240.28,254.88 232.82,245.85 C240.47,255.06 244.71,259.52 246.06,259.82 C246.24,259.86 246.43,259.92 246.62,259.99 ZM 248.66 302.78 C245.42,298.08 241.31,292.72 236.08,286.10 C243.56,295.56 248.70,302.16 252.35,308.15 C251.33,306.59 250.09,304.78 248.66,302.78 ZM 310.33 245.59 C305.47,251.04 302.28,254.00 301.17,254.00 C300.79,254.00 299.55,255.14 297.99,256.80 C299.18,255.24 300.53,254.00 301.05,254.00 C302.23,254.00 305.42,251.09 310.33,245.59 Z" fill="rgb(196,118,43)"/>
<path d="M 248.45 261.07 C248.22,260.85 247.89,260.61 247.52,260.41 C247.19,260.17 246.89,260.04 246.62,259.99 C246.43,259.92 246.24,259.86 246.06,259.82 C244.71,259.52 240.47,255.06 232.82,245.85 C230.95,243.58 228.92,241.09 226.77,238.44 C223.85,234.72 220.94,231.03 218.34,227.76 C223.69,234.19 227.00,237.48 227.00,236.25 C227.00,235.78 226.46,234.86 225.80,234.20 C224.87,233.27 224.87,232.73 225.83,231.77 C227.56,230.04 229.47,231.45 235.78,239.10 C238.69,242.62 243.76,248.76 247.05,252.75 C252.92,259.86 255.37,261.23 257.80,258.80 C259.83,256.77 259.15,253.50 255.75,248.96 C253.96,246.58 250.77,242.12 248.65,239.06 C246.53,236.00 244.41,233.26 243.94,232.96 C242.76,232.23 239.76,224.90 240.39,224.28 C241.05,223.62 289.35,223.65 298.50,224.31 C304.27,224.72 305.67,225.17 306.46,226.85 C307.55,229.15 310.16,230.14 312.05,228.97 C312.75,228.54 313.92,228.42 314.66,228.70 C316.32,229.34 316.43,235.17 314.82,236.78 C314.17,237.43 313.90,238.23 314.22,238.55 C314.96,239.29 317.87,236.60 323.04,230.38 C318.06,236.60 313.77,241.72 310.33,245.59 L 310.32 245.59 C305.41,251.09 302.23,254.00 301.05,254.00 C300.53,254.00 299.18,255.24 297.99,256.80 C297.25,257.59 296.43,258.50 295.60,259.46 C295.19,259.80 294.85,260.00 294.65,260.00 C294.11,260.00 293.95,259.72 294.29,259.38 C296.18,257.49 291.46,256.21 280.45,255.65 C273.88,255.31 266.82,254.75 264.77,254.41 C261.39,253.85 260.94,254.04 260.03,256.41 C259.03,259.06 254.68,261.47 252.45,260.62 C251.79,260.36 250.83,260.57 250.32,261.08 C249.76,261.64 249.03,261.64 248.45,261.07 ZM 285.30 320.85 C284.57,323.23 283.98,325.72 283.39,328.55 C283.11,329.92 282.88,331.53 282.70,333.68 C282.23,337.68 282.00,341.94 282.00,346.57 C282.00,352.92 281.59,358.00 281.07,358.00 C280.56,358.00 279.97,357.21 279.75,356.25 C279.36,354.54 278.99,357.04 278.70,362.16 C278.19,365.83 277.25,369.22 277.10,367.17 C277.04,366.40 275.72,367.12 273.92,368.92 C270.64,372.20 269.51,372.63 268.47,370.95 C268.02,370.23 267.40,370.25 266.47,371.02 C265.39,371.92 265.02,371.48 264.61,368.82 C264.49,368.01 264.32,366.62 264.14,365.00 C264.08,364.10 264.01,363.25 263.93,362.46 C263.37,356.43 262.50,347.18 262.01,341.89 C261.33,334.67 260.57,329.07 259.20,323.98 C258.31,319.83 256.97,316.83 254.99,312.64 C254.50,311.59 253.59,310.06 252.35,308.15 C248.70,302.16 243.56,295.56 236.08,286.10 C227.36,275.07 217.36,262.19 213.86,257.48 C212.85,256.11 211.74,254.65 210.55,253.09 C213.35,256.70 216.27,260.48 219.34,264.50 C234.18,283.91 250.94,305.00 251.52,305.00 C252.19,305.00 250.24,300.29 248.44,297.56 C247.50,296.11 247.10,294.26 247.48,293.05 C248.12,291.05 248.22,291.06 251.61,293.65 C254.91,296.17 255.84,296.33 269.07,296.77 C282.83,297.23 283.11,297.19 287.00,294.62 C289.18,293.18 291.10,292.00 291.29,292.00 C291.47,292.00 293.65,290.09 296.13,287.75 C300.56,283.58 302.55,280.48 302.08,278.50 C301.94,277.95 302.17,277.83 302.57,278.24 C302.98,278.65 303.88,278.51 304.57,277.94 C306.80,276.09 307.36,278.98 305.22,281.32 C302.76,284.02 299.90,289.56 300.61,290.27 C300.89,290.56 299.49,292.05 297.47,293.59 C293.03,296.98 288.96,302.73 289.68,304.61 C290.52,306.79 293.03,304.83 298.00,298.11 C299.07,296.66 301.23,293.86 303.96,290.36 C299.38,296.29 295.93,300.96 293.28,304.94 L 293.27 304.95 C289.94,309.83 288.00,313.27 286.98,315.92 C286.36,317.53 285.80,319.17 285.30,320.85 ZM 206.07 212.39 L 206.07 212.39 L 202.99 208.50 L 208.89 208.45 L 203.08 208.50 L 209.27 216.39 ZM 188.17 224.97 C187.18,223.77 186.19,222.56 185.19,221.35 C182.52,218.13 179.63,214.56 177.71,212.14 C179.63,214.56 182.53,218.13 185.19,221.35 C186.19,222.55 187.18,223.76 188.17,224.97 Z" fill="rgb(216,151,65)"/>
<path d="M 332.72 212.17 C335.03,214.33 335.40,214.34 337.19,212.25 C337.31,212.12 337.42,211.99 337.52,211.86 L 330.33 221.07 C328.15,223.85 325.81,226.84 323.63,229.64 L 323.63 229.64 C323.43,229.89 323.24,230.14 323.04,230.38 C317.87,236.60 314.96,239.29 314.22,238.55 C313.90,238.23 314.17,237.43 314.82,236.78 C316.43,235.17 316.32,229.34 314.66,228.70 C313.92,228.42 312.75,228.54 312.05,228.97 C310.16,230.14 307.55,229.15 306.46,226.85 C305.67,225.17 304.27,224.72 298.50,224.31 C289.35,223.65 241.05,223.62 240.39,224.28 C239.76,224.90 242.76,232.23 243.94,232.96 C244.41,233.26 246.53,236.00 248.65,239.06 C250.77,242.12 253.96,246.58 255.75,248.96 C256.81,250.38 257.60,251.67 258.14,252.84 C257.18,250.81 255.33,248.28 252.44,244.97 C249.35,241.41 244.15,234.90 240.88,230.50 C230.56,216.60 229.07,215.00 226.42,215.00 C224.20,215.00 222.00,217.92 222.00,220.86 C222.00,221.48 231.26,233.41 240.29,244.56 C238.60,242.51 237.00,240.58 235.78,239.10 C229.47,231.45 227.56,230.04 225.83,231.77 C224.87,232.73 224.87,233.27 225.80,234.20 C226.46,234.86 227.00,235.78 227.00,236.25 C227.00,237.48 223.69,234.19 218.34,227.76 C217.43,226.62 216.56,225.52 215.74,224.50 L 209.27 216.39 L 203.08 208.50 L 203.67 208.50 C203.36,208.85 203.79,209.49 205.09,210.87 L 207.30 213.24 L 208.58 210.87 C209.40,209.34 209.59,208.77 208.97,208.45 L 231.12 208.29 C228.55,208.43 227.00,208.65 227.00,208.93 C227.00,209.44 227.79,210.06 228.75,210.32 C229.71,210.58 231.75,210.57 233.28,210.31 C234.80,210.05 239.98,209.48 244.78,209.05 L 253.50 208.28 L 245.07 208.19 C253.07,208.15 262.30,208.13 271.52,208.13 L 271.55 208.13 C283.82,208.13 296.10,208.17 305.51,208.24 L 326.04 208.39 C325.77,208.57 326.42,208.85 327.72,209.33 C329.49,209.97 331.74,211.25 332.72,212.17 ZM 284.60 292.22 C289.59,289.65 295.67,283.10 307.50,267.54 C312.45,261.03 318.75,253.01 321.50,249.74 C322.24,248.85 323.07,247.85 323.92,246.80 C323.44,247.52 323.31,248.00 323.66,248.00 C324.91,248.00 332.00,241.25 332.00,240.06 C332.00,239.60 334.12,236.69 336.72,233.61 C339.91,229.81 342.17,228.00 343.72,228.00 C345.12,228.00 346.00,228.60 346.00,229.56 C346.00,230.53 346.47,230.84 347.25,230.39 C347.94,229.99 347.80,230.52 346.95,231.58 C343.76,235.52 339.90,242.15 341.26,241.34 C343.25,240.16 351.46,230.21 366.53,210.72 C352.03,229.47 344.29,239.19 340.67,243.20 C339.33,244.68 338.42,246.08 338.65,246.31 C338.88,246.54 337.92,247.48 336.53,248.39 C335.13,249.30 333.21,251.59 332.25,253.48 C331.29,255.37 324.20,264.81 316.50,274.46 C311.57,280.64 307.44,285.86 303.96,290.36 C301.23,293.86 299.07,296.66 298.00,298.11 C293.03,304.83 290.52,306.79 289.68,304.61 C288.96,302.73 293.03,296.98 297.47,293.59 C299.49,292.05 300.89,290.56 300.61,290.27 C299.90,289.56 302.76,284.02 305.22,281.32 C307.36,278.98 306.80,276.09 304.57,277.94 C303.88,278.51 302.98,278.65 302.57,278.24 C302.17,277.83 301.94,277.95 302.08,278.50 C302.55,280.48 300.56,283.58 296.13,287.75 C293.65,290.09 291.47,292.00 291.29,292.00 C291.10,292.00 289.18,293.18 287.00,294.62 C283.11,297.19 282.83,297.23 269.07,296.77 C255.84,296.33 254.91,296.17 251.61,293.65 C248.22,291.06 248.12,291.05 247.48,293.05 C247.10,294.26 247.50,296.11 248.44,297.56 C250.24,300.29 252.19,305.00 251.52,305.00 C250.94,305.00 234.18,283.91 219.34,264.50 C216.27,260.48 213.35,256.70 210.55,253.09 C205.83,246.89 199.83,239.30 193.28,231.23 C198.30,237.31 203.43,243.45 207.21,247.91 L 209.26 250.31 L 210.99 248.01 C212.28,246.30 213.40,245.84 215.39,246.22 C216.85,246.50 218.24,246.42 218.48,246.04 C218.68,245.71 215.70,241.52 209.12,232.92 C210.54,234.74 212.01,236.61 213.50,238.50 C223.40,251.09 231.50,261.77 231.50,262.23 C231.50,262.69 231.98,263.39 232.57,263.79 C233.16,264.18 236.95,268.77 240.99,274.00 C251.59,287.70 252.85,288.94 259.50,292.19 C264.87,294.82 266.29,295.08 273.00,294.73 C278.03,294.46 281.85,293.64 284.60,292.22 ZM 325.14 245.28 C327.09,242.85 329.04,240.34 330.31,238.64 C332.32,235.93 334.98,232.45 336.39,230.72 C335.22,232.22 333.55,234.46 331.98,236.63 C329.63,239.86 326.57,243.74 325.17,245.25 ZM 191.82 210.70 C187.89,205.71 183.50,200.15 178.64,194.00 C175.37,189.88 172.26,185.94 171.73,185.25 C171.70,185.22 171.70,185.19 171.72,185.15 L 172.67 186.38 C173.67,187.70 178.32,193.59 183.00,199.48 C186.37,203.74 189.77,208.06 191.82,210.70 ZM 250.80 256.97 C254.52,260.64 256.53,260.73 258.30,257.90 C258.81,257.09 259.01,256.19 258.87,255.13 C259.11,256.63 258.75,257.85 257.80,258.80 C255.96,260.64 254.12,260.30 250.80,256.97 ZM 338.94 210.05 C339.44,209.27 339.49,208.78 338.95,208.49 L 339.22 208.49 L 339.27 208.49 L 340.15 208.50 ZM 183.10 218.81 C181.10,216.36 179.14,213.94 177.71,212.14 C176.96,211.20 176.36,210.43 175.98,209.92 C175.27,208.99 174.52,208.00 173.73,206.96 C175.12,208.76 176.23,210.20 176.82,210.96 C178.13,212.66 180.37,215.44 183.10,218.81 ZM 338.20 228.49 C339.59,226.78 341.34,224.63 342.75,222.90 C344.81,220.37 348.98,215.05 352.00,211.08 C346.99,217.65 341.27,224.86 338.20,228.49 ZM 164.81 195.44 C160.75,190.25 157.17,185.74 155.86,184.23 C157.22,185.81 161.03,190.58 164.81,195.44 Z" fill="rgb(228,171,85)"/>
<path d="M 188.17 224.97 L 188.17 224.96 C187.18,223.76 186.18,222.55 185.19,221.35 C184.50,220.52 183.80,219.66 183.10,218.81 C180.37,215.44 178.13,212.66 176.82,210.96 C176.23,210.20 175.12,208.76 173.73,206.96 C170.97,203.35 167.76,199.21 164.81,195.44 C161.03,190.58 157.22,185.81 155.86,184.23 C152.05,179.83 151.29,176.45 153.54,173.96 C155.28,172.03 157.38,172.00 271.50,172.00 C382.79,172.00 387.76,172.08 389.35,173.83 C392.01,176.77 391.27,179.06 385.21,186.72 C382.07,190.70 373.66,201.50 366.53,210.72 C351.46,230.21 343.25,240.16 341.26,241.34 C340.13,242.02 342.61,237.55 345.30,233.76 C345.49,233.64 345.80,233.42 346.24,233.09 C347.18,232.37 347.72,231.40 347.44,230.91 C347.80,230.34 347.77,230.10 347.31,230.36 C347.36,230.14 347.57,230.00 347.90,230.00 C348.78,230.00 354.92,222.45 362.82,211.67 C364.09,209.92 367.91,205.12 371.32,201.00 C374.72,196.88 378.26,191.81 379.20,189.75 C380.14,187.69 381.37,186.00 381.95,186.00 C383.89,186.00 387.00,182.02 387.00,179.54 C387.00,178.19 385.99,176.12 384.75,174.96 C382.69,173.01 381.81,172.89 374.08,173.52 C369.45,173.90 319.01,174.27 261.98,174.35 C165.82,174.49 156.07,174.45 155.10,177.34 C154.99,177.67 155.00,178.03 155.00,178.44 C155.00,178.51 155.00,178.58 155.00,178.64 C155.00,179.41 156.79,181.99 158.99,184.37 C161.18,186.75 163.63,190.23 164.42,192.10 C165.22,193.97 169.27,199.22 173.43,203.78 C177.60,208.33 181.00,212.47 181.00,212.99 C181.00,213.51 182.28,215.41 183.83,217.22 C185.39,219.02 187.53,222.07 188.58,223.98 C190.20,226.91 199.35,238.66 207.25,247.95 L 209.26 250.31 L 209.26 250.31 L 207.21 247.91 C203.43,243.45 198.30,237.31 193.28,231.23 C191.61,229.17 189.90,227.08 188.17,224.97 ZM 172.63 184.00 C173.29,184.00 173.99,183.54 174.18,182.97 C174.41,182.28 206.31,181.91 272.37,181.84 C352.58,181.75 370.36,181.97 371.04,183.06 C371.21,183.33 371.31,183.64 371.33,184.00 ZM 191.82 210.70 C192.61,211.72 193.19,212.49 193.50,212.91 C194.43,214.17 201.07,222.67 209.12,232.92 C215.70,241.52 218.68,245.71 218.48,246.04 C218.24,246.42 216.85,246.50 215.39,246.22 C214.54,246.06 213.85,246.05 213.23,246.23 C213.63,246.07 214.02,245.97 214.37,245.97 C216.37,245.94 216.39,245.85 214.73,244.59 C213.75,243.85 210.38,239.69 207.23,235.35 C200.13,225.56 196.75,221.20 191.00,214.38 C182.95,204.83 180.60,201.79 179.24,199.17 C178.51,197.75 176.38,194.72 174.51,192.44 C172.03,189.42 170.86,186.21 171.43,184.77 L 171.72 185.15 C171.70,185.19 171.70,185.22 171.73,185.25 C172.26,185.94 175.37,189.88 178.64,194.00 C183.50,200.15 187.89,205.71 191.82,210.70 ZM 332.72 212.17 C331.74,211.25 329.49,209.97 327.72,209.33 C326.42,208.85 325.77,208.57 326.04,208.39 L 338.95 208.49 C339.49,208.78 339.44,209.27 338.94,210.05 L 337.52 211.86 C337.42,211.99 337.31,212.12 337.19,212.25 C335.40,214.34 335.03,214.33 332.72,212.17 ZM 208.89 208.45 L 208.97 208.45 C209.59,208.77 209.40,209.34 208.58,210.87 L 207.30 213.24 L 205.09 210.87 C203.79,209.49 203.36,208.85 203.67,208.50 ZM 346.39 230.54 C346.14,230.42 346.00,230.09 346.00,229.56 C346.00,229.50 346.00,229.45 345.99,229.40 C346.20,229.74 346.33,230.13 346.39,230.54 ZM 369.32 188.75 C368.03,190.71 366.08,193.28 363.32,196.68 C365.58,193.89 367.88,190.83 369.32,188.75 ZM 210.30 248.93 L 210.79 248.20 C211.04,247.82 211.37,247.46 211.74,247.14 C211.49,247.39 211.25,247.67 210.99,248.01 ZM 343.66 228.00 C343.20,228.01 342.67,228.19 342.07,228.52 C342.67,228.18 343.18,228.00 343.60,228.00 C343.62,228.00 343.64,228.00 343.66,228.00 Z" fill="rgb(230,193,126)"/>
<path d="M 325.14 245.28 L 325.17 245.25 C326.57,243.74 329.63,239.86 331.98,236.63 C333.55,234.46 335.22,232.22 336.39,230.72 C336.45,230.64 336.50,230.57 336.56,230.50 C336.99,229.98 337.55,229.28 338.20,228.49 L 338.20 228.49 C341.27,224.86 346.99,217.65 352.00,211.08 C355.02,207.11 360.12,200.63 363.32,196.68 C365.58,193.89 367.88,190.83 369.32,188.75 C369.91,187.89 370.36,187.19 370.59,186.75 L 372.05 184.00 L 371.33 184.00 C371.31,183.64 371.21,183.33 371.04,183.06 C370.36,181.97 352.58,181.75 272.37,181.84 C206.31,181.91 174.41,182.28 174.18,182.97 C173.99,183.54 173.29,184.00 172.63,184.00 L 170.83 184.00 L 171.43 184.77 C170.86,186.21 172.03,189.42 174.51,192.44 C176.38,194.72 178.51,197.75 179.24,199.17 C180.60,201.79 182.95,204.83 191.00,214.38 C196.75,221.20 200.13,225.56 207.23,235.35 C210.38,239.69 213.75,243.85 214.73,244.59 C216.39,245.85 216.37,245.94 214.37,245.97 C214.02,245.97 213.63,246.07 213.23,246.23 C212.69,246.38 212.22,246.68 211.74,247.14 C211.37,247.46 211.04,247.82 210.79,248.20 L 210.30 248.93 L 209.26 250.31 L 207.25 247.95 C199.35,238.66 190.20,226.91 188.58,223.98 C187.53,222.07 185.39,219.02 183.83,217.22 C182.28,215.41 181.00,213.51 181.00,212.99 C181.00,212.47 177.60,208.33 173.43,203.78 C169.27,199.22 165.22,193.97 164.42,192.10 C163.63,190.23 161.18,186.75 158.99,184.37 C156.79,181.99 155.00,179.41 155.00,178.64 C155.00,178.58 155.00,178.51 155.00,178.44 C155.00,178.03 154.99,177.67 155.10,177.34 C156.07,174.45 165.82,174.49 261.98,174.35 C319.01,174.27 369.45,173.90 374.08,173.52 C381.81,172.89 382.69,173.01 384.75,174.96 C385.99,176.12 387.00,178.19 387.00,179.54 C387.00,182.02 383.89,186.00 381.95,186.00 C381.37,186.00 380.14,187.69 379.20,189.75 C378.26,191.81 374.72,196.88 371.32,201.00 C367.91,205.12 364.09,209.92 362.82,211.67 C354.92,222.45 348.78,230.00 347.90,230.00 C347.57,230.00 347.36,230.14 347.31,230.36 C347.29,230.37 347.27,230.38 347.25,230.39 C346.90,230.59 346.61,230.64 346.39,230.54 C346.33,230.13 346.20,229.74 345.99,229.40 C345.90,228.53 345.04,228.00 343.72,228.00 C343.70,228.00 343.68,228.00 343.66,228.00 C343.64,228.00 343.62,228.00 343.60,228.00 C343.18,228.00 342.67,228.18 342.07,228.52 C340.68,229.31 338.92,230.98 336.72,233.61 C334.12,236.69 332.00,239.60 332.00,240.06 C332.00,241.25 324.91,248.00 323.66,248.00 C323.31,248.00 323.44,247.52 323.92,246.80 C324.32,246.30 324.73,245.79 325.14,245.28 ZM 250.80 256.97 C249.73,255.89 248.49,254.49 247.05,252.75 C245.14,250.44 242.63,247.39 240.29,244.56 C231.26,233.41 222.00,221.48 222.00,220.86 C222.00,217.92 224.20,215.00 226.42,215.00 C229.07,215.00 230.56,216.60 240.88,230.50 C244.15,234.90 249.35,241.41 252.44,244.97 C255.33,248.28 257.18,250.81 258.14,252.84 C258.51,253.66 258.75,254.43 258.87,255.13 L 258.87 255.13 C259.01,256.19 258.81,257.09 258.30,257.90 C256.53,260.73 254.52,260.64 250.81,256.97 ZM 237.55 208.24 C239.89,208.22 242.41,208.20 245.07,208.19 L 253.50 208.28 L 244.78 209.05 C239.98,209.48 234.80,210.05 233.28,210.31 C231.75,210.57 229.71,210.58 228.75,210.32 C227.79,210.06 227.00,209.44 227.00,208.93 C227.00,208.65 228.55,208.43 231.12,208.29 ZM 346.24 233.09 C345.80,233.42 345.49,233.64 345.30,233.76 C345.85,232.99 346.41,232.24 346.95,231.58 C347.16,231.32 347.32,231.10 347.44,230.91 C347.72,231.40 347.18,232.37 346.24,233.09 Z" fill="rgb(243,194,107)"/>
<path d="M 0.00 283.50 L 0.00 0.00 L 285.50 0.00 L 571.00 0.00 L 571.00 283.50 L 571.00 567.00 L 285.50 567.00 L 0.00 567.00 L 0.00 283.50 ZM 328.50 561.54 C379.67,553.33 423.11,533.94 465.00,500.61 C475.86,491.97 499.18,468.10 508.70,455.87 C549.81,403.10 570.59,340.53 568.73,275.12 C566.96,212.96 549.08,162.15 511.15,111.50 C500.76,97.62 471.38,68.58 456.71,57.67 C419.78,30.22 378.58,13.12 331.83,5.84 C312.34,2.80 264.03,2.51 246.00,5.33 C177.32,16.06 121.10,46.48 76.56,97.02 C48.63,128.72 31.29,158.95 19.22,197.00 C10.70,223.87 6.62,251.28 6.63,281.50 C6.65,330.30 16.61,371.12 38.71,413.00 C55.45,444.72 72.26,466.64 98.40,490.85 C142.70,531.88 201.49,557.94 262.00,563.38 C272.93,564.36 318.83,563.09 328.50,561.54 Z" fill="rgb(254,254,254)"/>
</g>
</svg>